HIERARCHY
ROOT SpineBase
{
  OFFSET 0.000000 0.000000 0.000000
  CHANNELS 6 Xposition Yposition Zposition Zrotation Xrotation Yrotation
  JOINT SpineMid
  {
    OFFSET 0.000000 29.835419 0.000000
    CHANNELS 3 Zrotation Xrotation Yrotation
    JOINT SpineShoulder
    {
      OFFSET -0.243432 22.187592 -0.645804
      CHANNELS 3 Zrotation Xrotation Yrotation
      JOINT Neck
      {
        OFFSET -0.196807 7.346463 -0.501395
        CHANNELS 3 Zrotation Xrotation Yrotation
        JOINT Head
        {
          OFFSET -3.925571 9.488745 5.695992
          CHANNELS 3 Zrotation Xrotation Yrotation
          End Site
          {
            OFFSET 0 0 0
          }
        }
      }
      JOINT ShoulderLeft
      {
        OFFSET 0.198362 -8.125770 13.359595
        CHANNELS 3 Zrotation Xrotation Yrotation
        JOINT ElbowLeft
        {
          OFFSET 5.207840 -22.981227 5.268206
          CHANNELS 3 Zrotation Xrotation Yrotation
          JOINT WristLeft
          {
            OFFSET -5.258948 -22.785099 7.025292
            CHANNELS 3 Zrotation Xrotation Yrotation
            JOINT HandLeft
            {
              OFFSET -1.890586 -12.585703 -1.738644
              CHANNELS 3 Zrotation Xrotation Yrotation
              JOINT HandTipLeft
              {
                OFFSET -0.734281 -0.777236 -0.882639
                CHANNELS 3 Zrotation Xrotation Yrotation
                End Site
                {
                  OFFSET 0 0 0
                }
              }
              JOINT ThumbLeft
              {
                OFFSET -0.859697 0.607940 -1.252187
                CHANNELS 3 Zrotation Xrotation Yrotation
                End Site
                {
                  OFFSET 0 0 0
                }
              }
            }
          }
        }
      }
      JOINT ShoulderRight
      {
        OFFSET -0.099702 -2.796509 -13.799260
        CHANNELS 3 Zrotation Xrotation Yrotation
        JOINT ElbowRight
        {
          OFFSET -1.293421 -23.822300 -5.821218
          CHANNELS 3 Zrotation Xrotation Yrotation
          JOINT WristRight
          {
            OFFSET -4.717483 -21.994312 -0.225913
            CHANNELS 3 Zrotation Xrotation Yrotation
            JOINT HandRight
            {
              OFFSET -0.550248 -8.244881 2.759098
              CHANNELS 3 Zrotation Xrotation Yrotation
              JOINT HandTipRight
              {
                OFFSET -5.106566 -7.196304 -1.100226
                CHANNELS 3 Zrotation Xrotation Yrotation
                End Site
                {
                  OFFSET 0 0 0
                }
              }
              JOINT ThumbRight
              {
                OFFSET 5.373506 0.388357 0.920229
                CHANNELS 3 Zrotation Xrotation Yrotation
                End Site
                {
                  OFFSET 0 0 0
                }
              }
            }
          }
        }
      }
    }
  }
  JOINT HipLeft
  {
    OFFSET -1.309835 0.176356 2.978500
    CHANNELS 3 Zrotation Xrotation Yrotation
    JOINT KneeLeft
    {
      OFFSET 12.578239 -27.278433 -21.380530
      CHANNELS 3 Zrotation Xrotation Yrotation
      JOINT AnkleLeft
      {
        OFFSET -0.141961 -37.113907 0.963504
        CHANNELS 3 Zrotation Xrotation Yrotation
        JOINT FootLeft
        {
          OFFSET -11.151165 -3.815285 -2.274733
          CHANNELS 3 Zrotation Xrotation Yrotation
          End Site
          {
            OFFSET 0 0 0
          }
        }
      }
    }
  }
  JOINT HipRight
  {
    OFFSET -1.618147 1.668387 -9.261134
    CHANNELS 3 Zrotation Xrotation Yrotation
    JOINT KneeRight
    {
      OFFSET 6.150096 -42.252421 -0.937693
      CHANNELS 3 Zrotation Xrotation Yrotation
      JOINT AnkleRight
      {
        OFFSET 5.683639 -32.306254 -3.552422
        CHANNELS 3 Zrotation Xrotation Yrotation
        JOINT FootRight
        {
          OFFSET -6.174076 -6.387121 -1.048048
          CHANNELS 3 Zrotation Xrotation Yrotation
          End Site
          {
            OFFSET 0 0 0
          }
        }
      }
    }
  }
}
MOTION
Frames: 13
Frame Time: 0.033333
146.152114 81.256080 315.762848 -0.000000 0.000000 91.442956 -0.000000 0.000000 -91.442956 -0.000000 0.000000 0.000000 -0.000000 0.000000 0.000000 0.000000 0.000000 0.000000 -0.000000 0.000000 0.000000 -0.000000 0.000000 0.000000 -0.000000 0.000000 0.000000 -0.000000 0.000000 0.000000 0.000000 0.000000 0.000000 0.000000 0.000000 0.000000 -0.000000 0.000000 0.000000 -0.000000 0.000000 0.000000 -0.000000 0.000000 0.000000 -0.000000 0.000000 0.000000 0.000000 0.000000 0.000000 0.000000 0.000000 0.000000 -0.000000 0.000000 -91.442956 -0.000000 0.000000 0.000000 -0.000000 0.000000 0.000000 0.000000 0.000000 0.000000 -0.000000 0.000000 -91.442956 -0.000000 0.000000 0.000000 -0.000000 0.000000 0.000000 0.000000 0.000000 0.000000
146.235140 81.234212 315.772944 0.055972 0.071472 91.322499 -0.070161 0.057606 -91.322498 -0.000000 0.000000 0.000000 -0.000000 0.000000 0.000000 0.000000 0.000000 0.000000 -0.000000 0.000000 0.000000 -0.000000 0.000000 0.000000 0.943669 -2.422376 0.254581 5.730674 0.444192 -6.585043 0.000000 0.000000 0.000000 0.000000 0.000000 0.000000 -0.000000 0.000000 0.000000 -0.490619 -0.721513 0.156573 0.192788 1.475246 -0.308688 0.303906 -0.753457 0.153673 0.000000 0.000000 0.000000 0.000000 0.000000 0.000000 -0.070161 0.057606 -91.322498 -0.000000 0.000000 0.000000 -0.000000 0.000000 0.000000 0.000000 0.000000 0.000000 -0.070161 0.057606 -91.322498 -0.000000 0.000000 0.000000 1.138346 0.126952 -0.313729 0.000000 0.000000 0.000000
146.306440 81.214545 315.788107 0.098011 0.130139 91.213458 -0.128034 0.100745 -91.213457 -0.000000 0.000000 0.000000 -0.000000 0.000000 0.000000 0.000000 0.000000 0.000000 -0.000000 0.000000 0.000000 -0.000000 0.000000 0.000000 1.726519 -4.609471 0.527886 10.398107 -0.469856 -11.561205 0.000000 0.000000 0.000000 0.000000 0.000000 0.000000 -0.000000 0.000000 0.000000 -0.862049 -1.310239 0.279619 0.366373 2.949941 -0.562321 0.518475 -1.638951 0.289013 0.000000 0.000000 0.000000 0.000000 0.000000 0.000000 -0.128034 0.100745 -91.213457 -0.000000 0.000000 0.000000 -0.000000 0.000000 0.000000 0.000000 0.000000 0.000000 -0.128034 0.100745 -91.213457 -0.000000 0.000000 0.000000 1.892549 0.275019 -0.590146 0.000000 0.000000 0.000000
146.366014 81.197081 315.808338 0.126161 0.176046 91.115999 -0.173556 0.129565 -91.115996 -0.000000 0.000000 0.000000 -0.000000 0.000000 0.000000 0.000000 0.000000 0.000000 -0.000000 0.000000 0.000000 -0.000000 0.000000 0.000000 2.356181 -6.580635 0.808453 14.023582 -2.296334 -14.775328 0.000000 0.000000 0.000000 0.000000 0.000000 0.000000 -0.657367 -0.617178 0.190797 -0.468618 -1.155610 0.188199 0.524701 4.432523 -0.766356 0.645650 -2.657260 0.405416 0.000000 0.000000 0.000000 0.000000 0.000000 0.000000 -0.173556 0.129565 -91.115996 -0.000000 0.000000 0.000000 -0.000000 0.000000 0.000000 0.000000 0.000000 0.000000 -0.173556 0.129565 -91.115996 -0.000000 0.000000 0.000000 2.260358 0.447307 -0.827393 0.000000 0.000000 0.000000
146.413862 81.181818 315.833636 0.140453 0.209230 91.030247 -0.206671 0.144192 -91.030244 -0.000000 0.000000 0.000000 -0.000000 0.000000 0.000000 0.000000 0.000000 0.000000 -0.000000 0.000000 0.000000 -0.000000 0.000000 0.000000 2.838074 -8.354715 1.087421 16.810686 -4.752366 -16.254597 0.000000 0.000000 0.000000 0.000000 0.000000 0.000000 -1.000080 -0.955212 0.288363 -0.283281 -1.164038 0.159609 0.670940 5.930573 -0.925853 0.686636 -3.809459 0.501562 0.000000 0.000000 0.000000 0.000000 0.000000 0.000000 -0.206671 0.144192 -91.030244 -0.000000 0.000000 0.000000 -0.000000 0.000000 0.000000 0.000000 0.000000 0.000000 -0.206671 0.144192 -91.030244 0.935847 0.355760 -0.043149 1.305854 0.291380 -0.972230 0.000000 0.000000 0.000000
146.449983 81.168758 315.864002 0.140912 0.229719 90.956295 -0.227335 0.144726 -90.956291 -0.000000 0.000000 0.000000 -0.000000 0.000000 0.000000 0.000000 0.000000 0.000000 -0.000000 0.000000 0.000000 -0.000000 0.000000 0.000000 3.175431 -9.949263 1.357923 19.005226 -7.689803 -16.043305 0.000000 0.000000 0.000000 0.000000 0.000000 0.000000 -1.412979 -1.368726 0.403638 0.072843 -0.986724 0.084732 0.807511 7.450699 -1.045535 0.652874 -5.930222 1.168240 0.000000 0.000000 0.000000 0.000000 0.000000 0.000000 -0.227335 0.144726 -90.956291 -0.000000 0.000000 0.000000 -0.000000 0.000000 0.000000 0.000000 0.000000 0.000000 -0.227335 0.144726 -90.956291 1.159105 0.466909 -0.049929 0.680039 0.406278 -1.120627 0.000000 0.000000 0.000000
146.472011 81.147221 315.901205 0.118297 0.246681 90.871582 -0.244853 0.122036 -90.871576 -0.000000 0.000000 0.000000 -0.000000 0.000000 0.000000 0.000000 0.000000 0.000000 -0.000000 0.000000 0.000000 -0.000000 0.000000 0.000000 3.037156 -10.491852 1.464054 20.636046 -11.255252 -13.369863 0.000000 0.000000 0.000000 0.000000 0.000000 0.000000 -1.997735 -1.949818 0.561892 0.681952 -0.733490 -0.029556 1.195341 9.971776 -1.175155 0.719246 -10.369310 2.790181 0.000000 0.000000 0.000000 0.000000 0.000000 0.000000 -0.244853 0.122036 -90.871576 -0.000000 0.000000 0.000000 -0.000000 0.000000 0.000000 0.000000 0.000000 0.000000 -0.244853 0.122036 -90.871576 1.523607 0.685260 -0.055932 -0.121496 0.481410 -1.331878 0.000000 0.000000 0.000000
146.487936 81.120540 315.933466 0.093529 0.262518 90.777977 -0.261223 0.097084 -90.777970 -0.000000 0.000000 0.000000 -0.000000 0.000000 0.000000 0.000000 0.000000 0.000000 -0.000000 0.000000 0.000000 -0.000000 0.000000 0.000000 3.269802 -12.045283 1.742070 19.206759 -12.171671 -7.631338 0.000000 0.000000 0.000000 0.000000 0.000000 0.000000 -2.636761 -2.604848 0.729057 1.430989 -0.114436 -0.231846 1.837949 11.599528 -1.135132 -0.348637 -13.101037 3.398635 0.000000 0.000000 0.000000 0.000000 0.000000 0.000000 -0.261223 0.097084 -90.777970 -0.000000 0.000000 0.000000 -0.000000 0.000000 0.000000 0.000000 0.000000 0.000000 -0.261223 0.097084 -90.777970 1.846599 0.898549 -0.059248 -1.780372 0.718831 -1.542554 0.000000 0.000000 0.000000
146.491545 81.122187 315.980827 0.056173 0.235505 90.762591 -0.234737 0.059303 -90.762585 -0.000000 0.000000 0.000000 -0.000000 0.000000 0.000000 0.000000 0.000000 0.000000 -0.000000 0.000000 0.000000 -0.000000 0.000000 0.000000 4.136422 -16.072582 2.504981 27.615268 -24.163165 3.807244 0.000000 0.000000 0.000000 0.000000 0.000000 0.000000 -3.330983 -3.268343 0.901475 2.426609 0.827159 -0.534086 1.666845 12.272849 -1.102966 -0.168310 -16.142136 4.940557 0.000000 0.000000 0.000000 0.000000 0.000000 0.000000 -0.234737 0.059303 -90.762585 -0.000000 0.000000 0.000000 -0.000000 0.000000 0.000000 0.000000 0.000000 0.000000 -0.234737 0.059303 -90.762585 2.015419 1.010109 -0.061445 -3.591824 0.700389 -1.353624 0.000000 0.000000 0.000000
146.474078 81.159553 316.038729 0.001934 0.176947 90.819293 -0.176901 0.004464 -90.819289 -0.000000 0.000000 0.000000 -0.786142 -0.098289 0.432030 0.000000 0.000000 0.000000 -0.000000 0.000000 0.000000 -0.207150 1.027026 -0.299767 5.120971 -19.797106 3.481605 28.914671 -24.453652 2.845930 0.000000 0.000000 0.000000 0.000000 0.000000 0.000000 -3.971142 -3.941696 1.055023 3.525894 2.147702 -0.926569 1.294199 11.664311 -0.912669 0.597858 -16.245229 5.028399 0.000000 0.000000 0.000000 0.000000 0.000000 0.000000 -0.176901 0.004464 -90.819289 0.171451 0.894223 -0.000308 -0.171467 -0.894220 -0.002369 0.000000 0.000000 0.000000 -0.176901 0.004464 -90.819289 1.998174 0.999978 -0.061006 -5.633508 0.998866 -1.269127 0.000000 0.000000 0.000000
146.460247 81.202435 316.106641 -0.048338 0.092089 90.858487 -0.092803 -0.046953 -90.858486 -0.000000 0.000000 0.000000 -1.019160 -0.098926 0.572398 0.000000 0.000000 0.000000 -0.000000 0.000000 0.000000 -0.415893 2.103751 -0.609143 5.137169 -22.302550 4.202208 30.231094 -24.631972 0.944663 0.000000 0.000000 0.000000 0.000000 0.000000 0.000000 -4.391729 -4.474838 1.153676 4.130434 2.972053 -1.168256 1.078801 11.590411 -0.862361 0.713457 -17.502799 5.833622 0.000000 0.000000 0.000000 0.000000 0.000000 0.000000 -0.092803 -0.046953 -90.858486 0.211348 1.196367 -0.001297 -0.211367 -1.196364 -0.003117 0.000000 0.000000 0.000000 -0.092803 -0.046953 -90.858486 1.782374 0.893362 -0.052543 -7.491302 1.379073 -1.153250 0.000000 0.000000 0.000000
146.447047 81.236260 316.182676 -0.107612 0.006920 90.964907 -0.008731 -0.107480 -90.964908 -0.000000 0.000000 0.000000 -1.104409 -0.043695 0.647209 0.000000 0.000000 0.000000 -0.000000 0.000000 0.000000 -0.641347 3.255148 -0.938021 5.415333 -25.520495 5.115560 31.529162 -24.123043 -5.472561 0.000000 0.000000 0.000000 0.000000 0.000000 0.000000 -4.530895 -4.589595 1.184420 4.312903 3.566065 -1.323871 0.798964 10.814861 -0.779348 1.416932 -17.896058 6.483310 0.000000 0.000000 0.000000 0.000000 0.000000 0.000000 -0.008731 -0.107480 -90.964908 0.151978 1.337978 -0.002948 -0.151951 -1.337981 -0.000601 0.000000 0.000000 0.000000 -0.008731 -0.107480 -90.964908 1.355885 0.671416 -0.038817 -9.251801 1.830668 -0.953396 0.000000 0.000000 0.000000
146.430109 81.262927 316.256825 -0.171373 -0.080924 91.115751 0.077572 -0.172916 -91.115755 -0.000000 0.000000 0.000000 -1.248165 0.038534 0.768950 0.000000 0.000000 0.000000 -0.000000 0.000000 0.000000 -0.857210 4.351581 -1.249021 6.059829 -27.870939 5.908596 29.440469 -19.570199 -13.055677 0.000000 0.000000 0.000000 0.000000 0.000000 0.000000 -4.311678 -4.191039 1.131681 4.013468 3.274777 -1.240614 0.660962 10.186688 -0.767584 0.963527 -16.722882 5.960843 0.000000 0.000000 0.000000 0.000000 0.000000 0.000000 -0.556390 0.533063 -90.867016 0.839313 1.895815 -0.255054 -0.137450 -1.251865 -0.000281 0.000000 0.000000 0.000000 0.077572 -0.172916 -91.115755 1.156799 0.581522 -0.030698 -10.045558 2.205147 -1.009382 0.000000 0.000000 0.000000
